<svg version="1.1" class="header-logo-svg" width="3620" height="896" xmlns="http://www.w3.org/2000/svg" xmlns:xlink="http://www.w3.org/1999/xlink" x="0px" y="0px" viewBox="0 0 3620.4 896.1" style="enable-background:new 0 0 3620.4 896.1;" xml:space="preserve">
                        <g>
                            <path d="M2717.9,318c-16.9-31.1-60-69.2-131.4-69.2c-109.5,0-198.4,84-198.4,206.9c0,110.2,73.4,207.6,198.4,207.6
                                c54.4,0,106.6-22.6,131.4-68.5v55.8h93.2V260.8h-93.2V318z M2718.6,459.2c-0.7,19.1-6.4,37.4-14.8,54.4
                                c-17.7,35.3-51.6,62.9-103.8,62.9c-84,0-118.6-70.6-118.6-118.6v-0.7c0-60.7,42.4-121.5,117.9-121.5c55.8,0,92.5,31.8,108.8,69.2
                                C2715.8,421.8,2719.3,440.1,2718.6,459.2z"></path>
                            <path d="M3051.3,335.6c22.6-0.7,45.2,5.6,63.6,18.4c19.1,12.7,33.2,31.1,41.7,51.6h95.3c-22.6-95.3-105.9-156.8-204.1-156.8
                                c-116.5,0-205.5,91.8-205.5,206.9c0,111.6,85.5,207.6,209,207.6c45.9,0.7,90.4-14.1,127.1-42.4c36-28.2,62.1-67.8,73.4-112.3h-95.3
                                c-14.1,31.8-46.6,67.1-105.2,67.1c-66.4,0-115.1-49.4-115.1-120.1c-0.7-31.8,10.6-62.9,31.8-86.9c10.6-11.3,24-19.8,38.1-25.4
                                C3020.2,337.7,3035.7,334.9,3051.3,335.6z"></path>
                            <path d="M1909.3,260.8l-105.2,269.1l-97.5-269.1h-104.5l128.5,322.7l26.8,67.1c-29,79.1-51.6,74.2-99.6,67.8v77.7
                                c22.6,4.9,45.2,7.8,68.5,7.1c67.8,0,94.6-59.3,116.5-115.8c18.4-45.9,164.5-428,164.5-428h-98.2v1.4L1909.3,260.8L1909.3,260.8z"></path>
                            <path d="M1467.9,342c-103.8-29.7-117.2-52.3-117.2-81.2s27.5-61.4,89.7-61.4s144.8,33.9,144.8,33.9v-92.5
                                c-49.4-16.9-101-25.4-153.2-25.4c-116.5,0-181.5,56.5-181.5,146.2c0,97.5,51.6,136.3,176.6,168.8c81.9,21.2,88.3,54.4,88.3,75.6
                                s-13.4,67.1-89.7,67.1c-79.8,0-164.5-36.7-164.5-36.7v91.8c29.7,11.3,86.2,28.2,172.3,28.2c125.7,0,185-63.6,185-156.1
                                C1618.4,409.8,1571.8,372.3,1467.9,342z"></path>
                            <path d="M2177.7,243.8c-98.2,0-184.3,79.8-184.3,178v229.5h93.2V419c0-47.3,44.5-84.7,91.8-84.7s91.8,38.1,91.8,84.7v232.3h92.5
                                V421.8C2362,322.9,2275.8,243.8,2177.7,243.8z"></path>
                            <path d="M3280.8,96.9h93.2v331.9l128.5-168.1h117.2l-149,183.6l149.7,206.2h-110.2l-97.5-141.2l-38.1,48.7v93.2h-93.2L3280.8,96.9z
                                "></path>
                            <g>
                                <path fill="#016BFF" d="M494.7,171.8h182.9c4.9,0,7.8-5.6,5.6-9.9L591.4,3.7c-2.1-4.2-8.5-4.2-11.3,0l-91.8,158.2
                                    C486.7,165.6,489.7,171.8,494.7,171.8z"></path>
                                <path fill="#016BFF" d="M542.8,616.7c91.8-252.8-178-401.1-178-401.1L8.9,0.9C4-2-1.6,3,0.5,7.9L45,133.6c1.4,4.9,4.9,8.5,9.2,11.3
                                    l227.4,134.9c0,0,139.1,78.4,163.8,173.7L97.2,245.2c-5.6-3.5-12,2.1-9.9,7.8l44.5,122.9c2.1,5.6,6.4,11.3,12,14.1L531,621.6
                                    C534.9,624,540.7,621.6,542.8,616.7z"></path>
                                <path fill="#016BFF" d="M629,616.7c-91.8-252.8,178-401.1,178-401.1L1162.9,0.9c4.9-2.8,10.6,2.1,8.5,7.1l-44.5,125.7
                                    c-1.4,4.9-4.9,8.5-9.2,11.3L890.3,279.8c0,0-139.1,78.4-163.8,173.7l348.2-208.3c5.6-3.5,12,2.1,9.9,7.8L1040,375.9
                                    c-2.1,5.6-6.4,11.3-12,14.1L640.8,621.6C636.9,624,631.1,621.6,629,616.7z"></path>
                                <path fill="#016BFF" d="M1002.6,482.5L585.9,731.8L169.3,482.5c-1.3-0.7-2.4,0.6-2.1,1.4c8.5,23.3,60.7,157.5,201.3,234.5l118.6,72
                                    l-74.2,44.5c-3.5,2.1-3.5,7.8,0,9.9l80.5,48.7c5.6,3.5,13.4,3.5,19.1,0l73.4-44.2l73.4,44.2c5.6,3.5,13.4,3.5,19.1,0l80.5-48.7
                                    c3.5-2.1,3.5-7.8,0-9.9l-74.2-44.5l118.6-72c140.5-77,192.8-211.2,201.3-234.5C1005,483.1,1003.9,481.7,1002.6,482.5z"></path>
                            </g>
                        </g>
                    </svg>